# xmcd
#
# Track frame offsets: 
#        182
#        20015
#        35530
#        56320
#        78020
#        98122
#        116822
#        143097
#        163472
#        183960
#
# Disc length: 2711 seconds
#
# Revision: 0
# Processed by: cddbd v1.4PL0 Copyright (c) Steve Scherf et al.
# Submitted via: ExactAudioCopy v0.95a3
#
DISCID=7e0a950a
DTITLE=The Partland Brothers - Part Land, Part Water
DYEAR=1993
DGENRE=Country
TTITLE0=Under the Moonlight
TTITLE1=Heaven in Your Heart
TTITLE2=Lift Me Up
TTITLE3=Our Time Has Come
TTITLE4=Boiling
TTITLE5=Heal It
TTITLE6=Fields
TTITLE7=Lean Into It
TTITLE8=Haven't I
TTITLE9=Take The Time
EXTD=
EXTT0=
EXTT1=
EXTT2=
EXTT3=
EXTT4=
EXTT5=
EXTT6=
EXTT7=
EXTT8=
EXTT9=
PLAYORDER=
